<svg width="1.5em" height="1.5em" viewBox="0 0 352 356" xmlns="http://www.w3.org/2000/svg">
  <path d="M111.133 353.496C109.075 355.756 107.357 356.516 105.074 354.137C82.4694 330.59 57.3694 309.397 36.9556 283.811C16.6738 258.39 4.95195 229.151 1.2878 196.713C-4.30339 147.216 8.28133 102.825 39.636 64.2859C68.3863 28.9479 105.841 7.84986 151.058 1.82027C209.973 -6.03574 260.781 11.5856 302.481 53.7459C329.538 81.1025 345.259 114.54 350.07 152.816C356.398 203.168 343.407 248.21 311.603 287.632C299.14 303.08 284.063 316.139 270.204 330.312C262.865 337.819 255.156 344.976 248.038 352.683C244.613 356.393 242.653 355.773 239.275 352.631C204.13 319.942 145.985 320.305 111.133 353.496ZM141.696 86.5865C78.2813 111.866 60.1636 189.185 105.728 240.402C108.027 242.986 108.115 244.627 105.644 247.002C94.8672 257.361 84.2085 267.842 73.5069 278.279C142.464 236.866 210.556 236.761 279.062 280.381C267.8 269.08 257.153 258.308 246.388 247.657C243.863 245.159 243.068 243.371 245.909 240.256C273.258 210.264 278.991 169.501 261.191 133.108C240.002 89.7838 187.468 69.0934 141.696 86.5865Z" fill="black"/>
  <circle cx="208.713" cy="197.09" r="15" fill="black"/>
  <circle cx="141.713" cy="197.09" r="15" fill="black"/>
</svg>
  